<?xml version="1.0" encoding="utf-8"?>
<!-- Generator: Adobe Illustrator 18.0.0, SVG Export Plug-In . SVG Version: 6.00 Build 0)  -->
<!DOCTYPE svg PUBLIC "-//W3C//DTD SVG 1.1//EN" "http://www.w3.org/Graphics/SVG/1.1/DTD/svg11.dtd">
<svg version="1.1" id="Livello_1" xmlns="http://www.w3.org/2000/svg" xmlns:xlink="http://www.w3.org/1999/xlink" x="0px" y="0px"
	 viewBox="0 0 200 200" enable-background="new 0 0 200 200" xml:space="preserve">
<title>pencil</title>
<g>
	<title>Layer 1</title>
	<g id="layer1">
	</g>
	<g id="layer2">
		<g id="g7826">
			<path id="path4217" marker-start="none" marker-end="none" marker-mid="none" fill="#DB9E7F" d="M135.2,56.5
				c-5.5-4.1-11.1-5.9-12.5-4c-0.1,0.1-0.2,0.3-0.2,0.4l-8.9,12.1l1.8,1.4l7,5.3l2.3,1.7l8.9,6.6l9.2-12.5c0,0,0,0,0-0.1l0,0
				c0,0,0,0,0,0C143.9,65.4,140.6,60.5,135.2,56.5z"/>
			<path id="path4235" marker-start="none" marker-end="none" marker-mid="none" fill="#E3DEDB" d="M115.9,61.7l-8.3,11.3l-1,1.3
				l1.8,1.4l18.2,13.6l9.3-12.6l-10-7.5l-8.2-6.1L115.9,61.7z"/>
			<path id="path4143" marker-start="none" marker-end="none" marker-mid="none" d="M132.9,80.7l-20-14.9l-0.7,0.9l-0.3,0.5l20,14.9
				l0.3-0.5L132.9,80.7z"/>
			<path id="path4106" marker-start="none" marker-end="none" marker-mid="none" fill="#BFBFBF" d="M108.8,71.3l-31.9,43.1
				l-3.4,25.7l2.1-1l21.3-9.8l31.9-43.1l-3.9-2.9l-1.4-1l-3.6-2.7l-0.5-0.3l-1.4-1l-0.5-0.3l-3.6-2.7l-1.4-1l-2.1-1.5L108.8,71.3z"
				/>
			
				<path id="path3990" marker-start="none" marker-end="none" marker-mid="none" fill="#3C74BF" stroke="#4072BE" stroke-miterlimit="10" d="
				M82.7,135.9l-3.9-2.9l-3.9-2.9l-1.4,10.1L82.7,135.9z"/>
			<path id="path4089" marker-start="none" marker-end="none" marker-mid="none" fill="#FF9191" d="M142.6,67.4
				C142.7,67.4,142.7,67.4,142.6,67.4L142.6,67.4L142.6,67.4z"/>
			<path id="path3424" marker-start="none" marker-end="none" marker-mid="none" fill="#666666" d="M108.8,71.3l-31.9,43.1l8.5-1
				l1.5,8.5l8.5-1l1.5,8.5l31.9-43.1l-5-3.7l-5-3.7l-5-3.7L108.8,71.3z"/>
			<path id="path3426" marker-start="none" marker-end="none" marker-mid="none" fill="#A1C5CE" d="M108.8,71.3l-31.9,43.1l8.5-1
				L113.8,75L108.8,71.3z"/>
			<path id="path3428" marker-start="none" marker-end="none" marker-mid="none" fill="#7A7A7A" d="M95.4,120.9l1.5,8.5l31.9-43.1
				l-5-3.7L95.4,120.9z"/>
			<path id="path3430" marker-start="none" marker-end="none" marker-mid="none" fill="#C1DFEA" d="M86.9,121.9l8.5-1l28.4-38.4
				l-5-3.7L86.9,121.9z"/>
			
				<path id="path4288" marker-start="none" marker-end="none" marker-mid="none" opacity="0.8" fill="#FFFFFF" enable-background="new    " d="
				M78.8,133l-2.6-2l-2.7,9.1L78.8,133z"/>
		</g>
	</g>
</g>
<path fill="none" stroke="#0061AA" stroke-width="7" stroke-miterlimit="10" d="M155.2,131.1"/>
<path fill="none" stroke="#0061AA" stroke-width="7" stroke-miterlimit="10" d="M178.5,95.9"/>
<path fill="#6B95AF" d="M138.9,148.3l38.5-22.2c2.8-1.6,3.8-5.2,2.1-8c-1.6-2.8-5.2-3.8-8-2.1L133,138.2c-2.8,1.6-3.8,5.2-2.1,8
	C132.5,149,136.1,149.9,138.9,148.3L138.9,148.3z"/>
<path fill="#6B95AF" d="M35.7,85.7l35.8-26.3c2.6-1.9,3.2-5.6,1.2-8.2c-1.9-2.6-5.6-3.2-8.2-1.2L28.8,76.2c-2.6,1.9-3.2,5.6-1.2,8.2
	S33.1,87.6,35.7,85.7L35.7,85.7z"/>
<path fill="#6B95AF" d="M63.2,114.2L36.7,78.5c-1.9-2.6-5.6-3.1-8.2-1.2s-3.1,5.6-1.2,8.2l26.5,35.7c1.9,2.6,5.6,3.1,8.2,1.2
	C64.6,120.5,65.1,116.8,63.2,114.2L63.2,114.2z"/>
<path fill="#6B95AF" d="M179.4,117.3l-22.3-38.5c-1.6-2.8-5.2-3.7-8-2.1s-3.7,5.2-2.1,8l22.3,38.5c1.6,2.8,5.2,3.7,8,2.1
	S181,120.1,179.4,117.3L179.4,117.3z"/>
</svg>
